<svg width="74" height="74" viewBox="0 0 74 74" fill="none" xmlns="http://www.w3.org/2000/svg">
<mask id="mask0_721_41420" style="mask-type:alpha" maskUnits="userSpaceOnUse" x="0" y="0" width="74" height="74">
<rect width="74" height="74" fill="#D9D9D9"/>
</mask>
<g mask="url(#mask0_721_41420)">
<path d="M18.0376 52.7251C20.6584 50.7209 23.5876 49.1407 26.8251 47.9845C30.0626 46.8282 33.4543 46.2501 37.0001 46.2501C40.5459 46.2501 43.9376 46.8282 47.1751 47.9845C50.4126 49.1407 53.3418 50.7209 55.9626 52.7251C57.7612 50.6181 59.1615 48.2286 60.1636 45.5563C61.1657 42.8841 61.6668 40.032 61.6668 37.0001C61.6668 30.1654 59.2643 24.3456 54.4595 19.5407C49.6546 14.7358 43.8348 12.3334 37.0001 12.3334C30.1654 12.3334 24.3456 14.7358 19.5407 19.5407C14.7358 24.3456 12.3334 30.1654 12.3334 37.0001C12.3334 40.032 12.8345 42.8841 13.8365 45.5563C14.8386 48.2286 16.239 50.6181 18.0376 52.7251ZM37.0001 40.0834C33.9681 40.0834 31.4115 39.0428 29.3303 36.9615C27.249 34.8803 26.2084 32.3237 26.2084 29.2917C26.2084 26.2598 27.249 23.7032 29.3303 21.622C31.4115 19.5407 33.9681 18.5001 37.0001 18.5001C40.032 18.5001 42.5886 19.5407 44.6699 21.622C46.7511 23.7032 47.7918 26.2598 47.7918 29.2917C47.7918 32.3237 46.7511 34.8803 44.6699 36.9615C42.5886 39.0428 40.032 40.0834 37.0001 40.0834ZM37.0001 67.8334C32.7348 67.8334 28.7265 67.024 24.9751 65.4053C21.2237 63.7865 17.9605 61.5897 15.1855 58.8147C12.4105 56.0397 10.2136 52.7765 8.59487 49.0251C6.97612 45.2737 6.16675 41.2654 6.16675 37.0001C6.16675 32.7348 6.97612 28.7265 8.59487 24.9751C10.2136 21.2237 12.4105 17.9605 15.1855 15.1855C17.9605 12.4105 21.2237 10.2136 24.9751 8.59487C28.7265 6.97612 32.7348 6.16675 37.0001 6.16675C41.2654 6.16675 45.2737 6.97612 49.0251 8.59487C52.7765 10.2136 56.0397 12.4105 58.8147 15.1855C61.5897 17.9605 63.7865 21.2237 65.4053 24.9751C67.024 28.7265 67.8334 32.7348 67.8334 37.0001C67.8334 41.2654 67.024 45.2737 65.4053 49.0251C63.7865 52.7765 61.5897 56.0397 58.8147 58.8147C56.0397 61.5897 52.7765 63.7865 49.0251 65.4053C45.2737 67.024 41.2654 67.8334 37.0001 67.8334ZM37.0001 61.6668C39.7237 61.6668 42.2931 61.2685 44.7084 60.472C47.1237 59.6754 49.3334 58.532 51.3376 57.0418C49.3334 55.5515 47.1237 54.4081 44.7084 53.6115C42.2931 52.815 39.7237 52.4168 37.0001 52.4168C34.2765 52.4168 31.707 52.815 29.2917 53.6115C26.8765 54.4081 24.6667 55.5515 22.6626 57.0418C24.6667 58.532 26.8765 59.6754 29.2917 60.472C31.707 61.2685 34.2765 61.6668 37.0001 61.6668ZM37.0001 33.9167C38.3362 33.9167 39.4411 33.4799 40.3147 32.6063C41.1883 31.7327 41.6251 30.6279 41.6251 29.2917C41.6251 27.9556 41.1883 26.8508 40.3147 25.9772C39.4411 25.1036 38.3362 24.6667 37.0001 24.6667C35.664 24.6667 34.5591 25.1036 33.6855 25.9772C32.8119 26.8508 32.3751 27.9556 32.3751 29.2917C32.3751 30.6279 32.8119 31.7327 33.6855 32.6063C34.5591 33.4799 35.664 33.9167 37.0001 33.9167Z" fill="#8E8E8E"/>
</g>
</svg>
