<svg width="52" height="52" viewBox="0 0 52 52" fill="none" xmlns="http://www.w3.org/2000/svg">
<path d="M8.68813 34.2799C9.0638 37.338 10.1935 38.7067 11.6989 40.3014C13.2043 41.6213 15.4861 43.201 17.7204 43.3121L38.7957 22.2369L37.2903 20.7315L31.2688 14.71L30.1504 13.5916L29.7634 13.2046L25.8212 17.1468L23.1014 19.8666L20.9144 22.0537L18.8637 24.1043L17.0328 25.9352L14.3231 28.6449L12.5288 30.4392L9.85566 33.1124L8.68813 34.2799Z" fill="#2F2F2F"/>
<path d="M41.8064 4.17237L31.2688 14.71L37.2903 20.7315L47.8279 10.1939L41.8064 4.17237Z" fill="#2F2F2F"/>
<path fill-rule="evenodd" clip-rule="evenodd" d="M39.0636 1.42956C39.747 0.746138 40.855 0.746138 41.5385 1.42956L50.5707 10.4618C51.2541 11.1452 51.2541 12.2533 50.5707 12.9367C49.8873 13.6201 48.7793 13.6201 48.0959 12.9367L47.8279 12.6687L39.7652 20.7315L43.0438 24.0102C43.7273 24.6936 43.7273 25.8017 43.0438 26.4851C42.3604 27.1685 41.2524 27.1685 40.569 26.4851L38.7957 24.7118L18.9578 44.5496C18.6083 44.8992 18.1272 45.0846 17.6334 45.06C15.4437 44.951 13.3695 43.7932 11.8246 42.6505L3.90406 50.5711C3.22065 51.2545 2.11261 51.2545 1.42919 50.5711C0.745772 49.8877 0.745772 48.7796 1.42919 48.0962L9.29517 40.2302C8.91995 39.7666 8.5614 39.2628 8.24316 38.6948C7.59923 37.5455 7.16266 36.2148 6.95119 34.4933C6.8855 33.9586 7.06976 33.4234 7.45069 33.0425L27.2885 13.2046L25.5152 11.4313C24.8318 10.7479 24.8318 9.63985 25.5152 8.95644C26.1986 8.27302 27.3067 8.27302 27.9901 8.95644L30.9996 11.966C30.9992 11.9656 31 11.9664 30.9996 11.966L31.2688 12.2351L39.3315 4.17237L39.0636 3.90443C38.3802 3.22101 38.3802 2.11297 39.0636 1.42956ZM41.8064 6.64724L33.7436 14.71L37.2903 18.2566L45.353 10.1939L41.8064 6.64724ZM36.3208 22.2369L29.7634 15.6795L10.5551 34.8878C10.7324 35.7837 10.9917 36.4399 11.2966 36.9841C11.6904 37.687 12.202 38.2823 12.9139 39.039C14.1598 40.121 15.6954 41.1372 17.0962 41.4615L36.3208 22.2369Z" fill="#2F2F2F"/>
<path fill-rule="evenodd" clip-rule="evenodd" d="M12.3793 31.9501C12.8349 31.4945 13.5736 31.4945 14.0292 31.9501L15.5346 33.4555C15.9902 33.9111 15.9902 34.6498 15.5346 35.1054C15.079 35.561 14.3403 35.561 13.8847 35.1054L12.3793 33.6C11.9237 33.1444 11.9237 32.4057 12.3793 31.9501Z" fill="white"/>
<path fill-rule="evenodd" clip-rule="evenodd" d="M16.8954 27.4335C17.351 26.9779 18.0897 26.9779 18.5453 27.4335L21.5561 30.4443C22.0117 30.8999 22.0117 31.6386 21.5561 32.0942C21.1005 32.5498 20.3618 32.5498 19.9062 32.0942L16.8954 29.0834C16.4398 28.6278 16.4398 27.8891 16.8954 27.4335Z" fill="white"/>
<path fill-rule="evenodd" clip-rule="evenodd" d="M21.4115 22.9169C21.8671 22.4613 22.6058 22.4613 23.0614 22.9169L24.5668 24.4223C25.0224 24.8779 25.0224 25.6166 24.5668 26.0722C24.1112 26.5278 23.3725 26.5278 22.9169 26.0722L21.4115 24.5668C20.9559 24.1112 20.9559 23.3725 21.4115 22.9169Z" fill="white"/>
<path fill-rule="evenodd" clip-rule="evenodd" d="M25.9276 18.4003C26.3833 17.9447 27.122 17.9447 27.5776 18.4003L30.5883 21.4111C31.0439 21.8667 31.0439 22.6054 30.5883 23.061C30.1327 23.5166 29.394 23.5166 28.9384 23.061L25.9276 20.0502C25.472 19.5946 25.472 18.8559 25.9276 18.4003Z" fill="white"/>
</svg>
