<svg width="24" height="24" viewBox="0 0 24 24" fill="none" xmlns="http://www.w3.org/2000/svg">
<g id="Lotes">
<path id="Vector 27 (Stroke)" fill-rule="evenodd" clip-rule="evenodd" d="M11.7353 3.75C9.87542 3.75 8.36769 5.25774 8.36769 7.11765C8.36769 8.97755 9.87542 10.4853 11.7353 10.4853C13.5952 10.4853 15.1029 8.97756 15.1029 7.11765C15.1029 5.25774 13.5952 3.75 11.7353 3.75ZM6.86769 7.11765C6.86769 4.42932 9.04699 2.25 11.7353 2.25C14.4237 2.25 16.6029 4.42933 16.6029 7.11765C16.6029 7.38995 16.5806 7.65703 16.5376 7.91716C17.4158 8.61049 18.1385 9.4898 18.6495 10.4991C18.9425 11.0779 19.16 11.6875 19.2995 12.3131C21.159 12.9977 22.4853 14.7852 22.4853 16.8824C22.4853 19.5707 20.306 21.75 17.6176 21.75C16.6702 21.75 15.7859 21.4793 15.038 21.011C14.3195 21.3494 13.5488 21.5776 12.7514 21.683C11.2822 21.8773 9.9081 21.7277 8.56628 21.0902C7.84697 21.5097 7.01038 21.75 6.11765 21.75C3.42932 21.75 1.25 19.5707 1.25 16.8824C1.25 14.9002 2.43472 13.1948 4.13468 12.4356C4.41414 10.9698 5.11048 9.71016 6.144 8.63336C6.39133 8.37567 6.65508 8.13653 6.93302 7.9171C6.89004 7.65699 6.86769 7.38993 6.86769 7.11765ZM7.45792 9.44289C7.37885 9.51711 7.30157 9.59351 7.22618 9.67206C6.55016 10.3764 6.0654 11.1543 5.78427 12.0259C5.89443 12.0185 6.0056 12.0147 6.11765 12.0147C8.80597 12.0147 10.9853 14.194 10.9853 16.8824C10.9853 18.0663 10.5626 19.1516 9.85986 19.9954C10.7046 20.2717 11.5833 20.3245 12.5548 20.196C12.9805 20.1397 13.3969 20.04 13.7978 19.8998C13.1417 19.0703 12.75 18.0221 12.75 16.8824C12.75 14.194 14.9293 12.0147 17.6176 12.0147C17.6323 12.0147 17.647 12.0148 17.6617 12.0149C17.5658 11.7286 17.4489 11.4484 17.3113 11.1767C16.9805 10.5235 16.5399 9.93779 16.0127 9.44294C15.1876 10.9575 13.5815 11.9853 11.7353 11.9853C9.88913 11.9853 8.28301 10.9575 7.45792 9.44289ZM15.6953 19.6478C15.6235 19.5614 15.5347 19.4942 15.4366 19.4484C14.7106 18.8307 14.25 17.9103 14.25 16.8824C14.25 15.0225 15.7577 13.5147 17.6176 13.5147C19.4775 13.5147 20.9853 15.0225 20.9853 16.8824C20.9853 18.7423 19.4775 20.25 17.6176 20.25C16.903 20.25 16.2404 20.0274 15.6953 19.6478ZM8.09366 19.6096C8.93693 18.9976 9.48529 18.004 9.48529 16.8824C9.48529 15.0225 7.97755 13.5147 6.11765 13.5147C4.25775 13.5147 2.75 15.0225 2.75 16.8824C2.75 18.7423 4.25775 20.25 6.11765 20.25C6.84715 20.25 7.52248 20.018 8.0739 19.6239C8.08041 19.619 8.087 19.6143 8.09366 19.6096Z" fill="#2F2F2F"/>
</g>
</svg>
