<svg width="24" height="24" viewBox="0 0 24 24" fill="none" xmlns="http://www.w3.org/2000/svg">
<g id="Propriedades">
<path id="Vector 26" fill-rule="evenodd" clip-rule="evenodd" d="M2 9.14706V22H7.14286V13.6176H16.8571V22H22V9.14706L11.7143 3L2 9.14706ZM8.28571 7.47059V11.9412H15.7143V7.47059H8.28571Z" fill="#2F2F2F"/>
<path id="Vector 26 (Stroke)" fill-rule="evenodd" clip-rule="evenodd" d="M11.3132 2.36623C11.5523 2.21495 11.8562 2.21107 12.099 2.35621L22.3848 8.50327C22.6113 8.63865 22.75 8.88315 22.75 9.14706V22C22.75 22.4142 22.4142 22.75 22 22.75H16.8571C16.6773 22.75 16.5034 22.6853 16.3672 22.5678L12 18.7994L7.63283 22.5678C7.49664 22.6853 7.32274 22.75 7.14286 22.75H2C1.58579 22.75 1.25 22.4142 1.25 22V9.14706C1.25 8.88995 1.3817 8.65077 1.59896 8.51329L11.3132 2.36623ZM13.148 17.8088L16.1071 20.3622V15.2554L13.148 17.8088ZM14.8399 14.3676L12 16.8182L9.16006 14.3676H14.8399ZM7.89286 15.2554L10.852 17.8088L7.89286 20.3622V15.2554ZM6.39286 21.25V13.6176C6.39286 13.2034 6.72864 12.8676 7.14286 12.8676H16.8571C17.2714 12.8676 17.6071 13.2034 17.6071 13.6176V21.25H21.25V9.57257L11.7255 3.88044L2.75 9.56001V21.25H6.39286ZM7.53571 7.47059C7.53571 7.05637 7.8715 6.72059 8.28571 6.72059H15.7143C16.1285 6.72059 16.4643 7.05637 16.4643 7.47059V11.9412C16.4643 12.3554 16.1285 12.6912 15.7143 12.6912H8.28571C7.8715 12.6912 7.53571 12.3554 7.53571 11.9412V7.47059ZM9.03571 8.22059V11.1912H14.9643V8.22059H9.03571Z" fill="#2F2F2F"/>
</g>
</svg>
