<svg width="24" height="24" viewBox="0 0 24 24" fill="none" xmlns="http://www.w3.org/2000/svg">
<g id="Rebanho">
<path id="Vector 17" fill-rule="evenodd" clip-rule="evenodd" d="M5.27827 19H6.20728V11.5C6.55348 13.0805 6.85013 13.717 7.60079 14.3125C8.11328 14.5581 8.56787 14.7417 8.99429 14.8624C9.72095 15.0683 10.3658 15.0917 11.0759 14.9287C11.5721 14.8148 12.1002 14.6099 12.7103 14.3125L14.1038 11.5V19H15.0329V11.5L15.9619 10.0938C17.1776 10.9571 17.6608 11.5654 18.2844 12.9062L18.5507 16C18.6948 17.3005 19.457 17.736 20.6069 19H21.0714L22.5 13.8438C22.6368 12.8978 21.9987 11.568 21.5359 11.0312L18.2844 5.875C17.282 4.53525 16.5977 4.14704 15.2073 4H4.81375L5.27827 19ZM14.6487 6.32591C14.8499 5.10772 13.9101 4 12.6754 4H7.63567C6.40098 4 5.46121 5.10771 5.6624 6.32589L5.74276 6.8125C6.2481 8.46771 7.32408 9.57468 8.5298 10.0938C9.79973 10.5371 10.512 10.3577 11.7813 10.0938C13.389 9.45663 14.2369 8.29201 14.5683 6.8125L14.6487 6.32591Z" fill="#2F2F2F"/>
<path id="Vector 17 (Stroke)" fill-rule="evenodd" clip-rule="evenodd" d="M4.66791 3.26432C4.71594 3.2548 4.76479 3.25 4.81376 3.25H15.2073C15.2336 3.25 15.2599 3.25139 15.2861 3.25416C16.0368 3.33354 16.6768 3.48587 17.278 3.8476C17.8699 4.20376 18.3607 4.72506 18.8849 5.42568C18.8968 5.44165 18.9081 5.45808 18.9188 5.47495L21.1662 9.03887L21.2647 8.5417C21.3452 8.13539 21.7399 7.87128 22.1462 7.95181C22.5525 8.03233 22.8166 8.42699 22.7361 8.8333L22.337 10.8471C22.5605 11.1736 22.7767 11.5854 22.9423 12.0135C23.1618 12.581 23.3375 13.2923 23.2423 13.9511C23.2377 13.9824 23.2312 14.0135 23.2228 14.044L21.7942 19.2003C21.7042 19.5251 21.4085 19.75 21.0714 19.75H20.6069C20.3957 19.75 20.1943 19.6609 20.0521 19.5047C19.803 19.2309 19.5733 18.998 19.355 18.7767C19.332 18.7535 19.3092 18.7303 19.2865 18.7073C19.0535 18.4708 18.8227 18.2343 18.6218 17.9894C18.1943 17.4684 17.896 16.9016 17.8052 16.0826L17.8034 16.0643L17.5486 13.104C17.2736 12.5251 17.0405 12.1321 16.7653 11.7965C16.5934 11.587 16.3959 11.3887 16.1448 11.1775L15.7829 11.7254V19C15.7829 19.4142 15.4471 19.75 15.0329 19.75H14.1038C13.6896 19.75 13.3538 19.4142 13.3538 19V14.6977C13.2793 14.8222 13.1701 14.9228 13.0389 14.9867C12.615 15.1933 12.2147 15.3644 11.8259 15.4945V16.1875C11.8259 16.6017 11.4901 16.9375 11.0759 16.9375C10.6616 16.9375 10.3259 16.6017 10.3259 16.1875V15.7831C10.1316 15.79 9.93839 15.7843 9.74429 15.7664V16.1875C9.74429 16.6017 9.4085 16.9375 8.99429 16.9375C8.58008 16.9375 8.24429 16.6017 8.24429 16.1875V15.4048C7.93293 15.2893 7.61233 15.1497 7.27669 14.9889C7.22619 14.9647 7.17856 14.9349 7.13468 14.9001C7.07348 14.8515 7.01438 14.8023 6.95728 14.7523V19C6.95728 19.4142 6.62149 19.75 6.20728 19.75H5.27827C4.8731 19.75 4.54117 19.4282 4.52863 19.0232L4.09497 5.01952C3.98407 5.07602 3.8837 5.13807 3.79254 5.20547C3.51267 5.4124 3.28398 5.69594 3.10719 6.10436C2.74315 6.94538 2.61149 8.28226 2.76662 10.401C2.90081 10.7737 2.9828 11.1268 2.9806 11.505C2.97822 11.9153 2.87684 12.2945 2.73138 12.6941C2.72034 12.7244 2.70735 12.754 2.69251 12.7826C2.54658 13.0642 2.38689 13.2957 2.17283 13.5048C1.96799 13.705 1.73764 13.86 1.49395 14.0117C1.27122 14.1504 0.992225 14.1625 0.758261 14.0438C0.524296 13.9251 0.369373 13.6928 0.349732 13.4311C0.292995 12.6754 0.270592 12.2124 0.365202 11.8069C0.463364 11.3293 0.58111 10.8791 0.802115 10.5332C0.926311 10.3387 1.07435 10.1887 1.24193 10.076C1.12802 8.12599 1.24976 6.6194 1.73062 5.50851C2.00114 4.88353 2.38664 4.37948 2.90076 3.99935C3.40945 3.62323 4.00769 3.3952 4.66791 3.26432ZM5.7051 8.55278L5.77734 10.8854C5.87788 10.8149 5.99687 10.7684 6.12657 10.7544C6.50732 10.7131 6.85796 10.9654 6.93991 11.3395C7.11064 12.1189 7.25623 12.5995 7.42585 12.9456C7.57127 13.2424 7.74205 13.4557 8.00379 13.6737C8.45964 13.8887 8.84778 14.0414 9.19868 14.1408C9.81181 14.3145 10.3285 14.3308 10.9081 14.1977C11.2719 14.1142 11.6742 13.9686 12.1536 13.7468L13.4318 11.167C13.5865 10.8549 13.9357 10.6903 14.2748 10.7698C14.3718 10.7924 14.4606 10.8334 14.538 10.8884L15.3361 9.68034C15.4481 9.51072 15.6243 9.39386 15.8241 9.35651C16.0239 9.31917 16.2304 9.36455 16.3961 9.48225C17.0331 9.93461 17.5161 10.3467 17.9251 10.8453C18.3329 11.3425 18.6407 11.8938 18.9644 12.59C19.0014 12.6694 19.0241 12.7547 19.0316 12.8419L19.2971 15.926C19.3513 16.4025 19.5059 16.7022 19.7814 17.038C19.9328 17.2225 20.1171 17.4131 20.355 17.6545C20.3775 17.6773 20.4004 17.7005 20.4237 17.7241C20.4795 17.7808 20.5376 17.8396 20.5977 17.9009L21.7627 13.6959C21.7921 13.4099 21.716 13.0011 21.5433 12.5546C21.3657 12.0954 21.13 11.709 20.9679 11.521C20.9436 11.4928 20.9214 11.4628 20.9015 11.4313L17.6662 6.30073C17.1969 5.67673 16.8487 5.33992 16.5046 5.13287C16.1723 4.93292 15.7842 4.81819 15.1669 4.75H15.1256C15.3828 5.25234 15.4891 5.84023 15.3887 6.44812L15.3083 6.93472C15.306 6.9487 15.3033 6.96261 15.3002 6.97644C14.92 8.67388 13.9182 10.0536 12.0576 10.791C12.0176 10.8069 11.9762 10.8193 11.934 10.828C11.8789 10.8395 11.8241 10.851 11.7696 10.8624C11.2227 10.977 10.708 11.0848 10.1897 11.1082C9.58927 11.1354 8.99837 11.0517 8.28258 10.8018C8.26591 10.796 8.24945 10.7896 8.23323 10.7826C7.24385 10.3567 6.3484 9.6019 5.7051 8.55278ZM12.6754 4.75H7.63567C6.86399 4.75 6.27663 5.44232 6.40237 6.20368L6.47437 6.6396C6.91985 8.05499 7.82734 8.96634 8.80248 9.39449C9.34347 9.5806 9.73735 9.62717 10.1219 9.60977C10.5132 9.59206 10.9082 9.50968 11.4925 9.38782C11.5157 9.38299 11.5391 9.37809 11.5629 9.37314C12.8725 8.83522 13.5506 7.90215 13.8319 6.66861L13.9087 6.20369C14.0345 5.44232 13.4471 4.75 12.6754 4.75ZM20.6069 12.625C21.0211 12.625 21.3569 12.9608 21.3569 13.375V14.3125C21.3569 14.7267 21.0211 15.0625 20.6069 15.0625C20.1927 15.0625 19.8569 14.7267 19.8569 14.3125V13.375C19.8569 12.9608 20.1927 12.625 20.6069 12.625Z" fill="#2F2F2F"/>
<path id="Vector 18 (Stroke)" fill-rule="evenodd" clip-rule="evenodd" d="M21.0507 13C21.3268 13 21.5507 13.2239 21.5507 13.5V14C21.5507 14.2761 21.3268 14.5 21.0507 14.5C20.7745 14.5 20.5507 14.2761 20.5507 14V13.5C20.5507 13.2239 20.7745 13 21.0507 13Z" fill="white"/>
</g>
</svg>
