<svg width="56" height="56" viewBox="0 0 56 56" fill="none" xmlns="http://www.w3.org/2000/svg">
<path fill-rule="evenodd" clip-rule="evenodd" d="M41.2152 1.09655C41.8986 1.77996 41.8986 2.888 41.2152 3.57142C40.6148 4.17174 40.1552 4.77896 39.8049 5.39297L50.6659 16.3161C51.2557 16.0012 51.7997 15.5552 52.3001 14.9297C52.9039 14.175 54.0052 14.0526 54.7599 14.6564C55.5146 15.2602 55.6369 16.3614 55.0332 17.1161C53.8292 18.6211 52.3744 19.5534 50.7556 20.0478C48.9537 20.5981 47.0328 20.5808 45.1625 20.3558C43.553 20.1622 41.8624 19.7972 40.2093 19.431C40.6111 21.9941 40.825 24.7545 40.3073 27.5659C40.1768 28.2746 40.0001 28.9881 39.7688 29.7047C39.0867 31.8188 37.9434 33.9186 36.1731 35.9839C34.0884 38.416 31.7622 39.8803 29.3 40.6546C26.2682 41.6081 23.1264 41.4767 20.1773 41.0205C20.7675 44.2283 21.1813 47.6704 19.9327 50.8796C19.3775 52.3065 18.5117 53.6528 17.2597 54.9048C16.5763 55.5882 15.4682 55.5882 14.7848 54.9048C14.1014 54.2213 14.1014 53.1133 14.7848 52.4299C15.3852 51.8295 15.8448 51.2223 16.1951 50.6083L5.334 39.6852C4.74427 40.0001 4.20021 40.4461 3.69984 41.0716C3.09607 41.8263 1.99481 41.9487 1.2401 41.3449C0.485392 40.7411 0.363029 39.6399 0.966796 38.8852C2.17074 37.3802 3.62554 36.448 5.24434 35.9535C7.10577 35.385 9.09606 35.4219 11.0291 35.6693C12.5733 35.8669 14.1978 36.2174 15.7905 36.5702C15.3495 33.7612 15.1339 30.7106 15.8682 27.5987C16.4684 25.0552 17.6867 22.5143 19.8269 20.0174C21.7821 17.7363 23.9522 16.3037 26.2533 15.4953C26.694 15.3405 27.1369 15.2095 27.5809 15.1C30.3279 14.4225 33.151 14.5682 35.8233 14.9812C35.2349 11.7811 34.8153 8.33936 36.0673 5.12163C36.6225 3.69472 37.4883 2.34848 38.7403 1.09655C39.4237 0.41313 40.5317 0.41313 41.2152 1.09655ZM39.5222 15.6946C39.7439 15.7431 39.9635 15.7915 40.1808 15.8396C40.3205 15.8705 40.4592 15.9013 40.597 15.9318C42.3997 16.3315 44.0433 16.696 45.5806 16.8809C45.8512 16.9134 46.1143 16.9398 46.37 16.9596L38.7608 9.30679C38.6903 11.1419 39.0362 13.1895 39.4964 15.5617C39.505 15.6059 39.5136 15.6502 39.5222 15.6946ZM36.524 18.6544C34.3334 18.2466 32.2262 18.0038 30.2165 18.1963L37.0568 25.4924C37.2473 23.2365 36.9466 20.9814 36.524 18.6544ZM36.0909 29.5794L26.3814 19.223C25.4379 19.6726 24.5085 20.2903 23.6029 21.1287L34.673 32.1988C35.2744 31.3156 35.7377 30.4421 36.0909 29.5794ZM32.3971 34.8726L21.3269 23.8025C20.4829 25.0421 19.9089 26.2653 19.5305 27.4705L29.211 36.9619C30.2962 36.501 31.3627 35.8302 32.3971 34.8726ZM25.1205 37.853L18.8858 31.7401C18.8667 33.5831 19.13 35.4405 19.4758 37.347C21.4315 37.7106 23.3169 37.9416 25.1205 37.853ZM16.4777 40.3065C16.3894 40.2872 16.3014 40.268 16.2138 40.2487C15.9292 40.1862 15.6486 40.124 15.3717 40.0626C13.6512 39.6812 12.0739 39.3316 10.5848 39.141C10.2556 39.0988 9.93748 39.0656 9.62993 39.0418L17.2396 46.6949C17.3115 44.8224 16.9486 42.733 16.4777 40.3065Z" fill="#2F2F2F"/>
</svg>
